{"accessors" : [{"bufferView" : 0, "byteOffset" : 0, "componentType" : 5123, "count" : 59334, "type" : "SCALAR", "max" : [57719], "min" : [0]}, {"bufferView" : 1, "byteOffset" : 0, "componentType" : 5126, "count" : 57720, "type" : "VEC3", "max" : [1.2589741945266724, 0.4328404366970062, 0.9653050303459167], "min" : [-1.3691807985305786, -0.06251298636198044, -1.0269863605499268], "name" : "POSITION"}, {"bufferView" : 1, "byteOffset" : 12, "componentType" : 5126, "count" : 57720, "type" : "VEC3", "max" : [1.0000044107437134, 1.0000044107437134, 1.0000044107437134], "min" : [-1.0000044107437134, -1.0000044107437134, -1.0000044107437134], "name" : "NORMAL"}], "asset" : {"generator" : "Aspose.3D 22.12", "version" : "2.0"}, "buffers" : [{"uri" : "data:application/octet-stream;base64,", "byteLength" : 1542692}], "bufferViews" : [{"buffer" : 0, "byteOffset" : 0, "byteLength" : 118668, "target" : 34963}, {"buffer" : 0, "byteOffset" : 118672, "byteLength" : 1424016, "byteStride" : 24, "target" : 34962}], "meshes" : [{"primitives" : [{"attributes" : {"POSITION" : 1, "NORMAL" : 2}, "indices" : 0, "mode" : 4}], "name" : ""}], "nodes" : [{"mesh" : 0, "name" : "city"}], "scene" : 0, "scenes" : [{"nodes" : [0]}]}